<svg width="251" height="221" viewBox="0 0 251 221" fill="none" xmlns="http://www.w3.org/2000/svg">
<g filter="url(#filter0_d_2596_10181)">
<path d="M114.2 92.1406H25.8308V157.328H114.2V92.1406Z" fill="#F5F9FF"/>
<path d="M114.2 92.1406H25.8308V100.271H114.2V92.1406Z" fill="#D0DBF7"/>
<path d="M32.9247 96.3934C32.9247 97.4212 32.0915 98.2538 31.0643 98.2538C30.0365 98.2538 29.2039 97.4207 29.2039 96.3934C29.2039 95.3661 30.037 94.533 31.0643 94.533C32.0915 94.533 32.9247 95.3661 32.9247 96.3934Z" fill="#F2F2F2"/>
<path d="M39.1899 96.3936C39.1899 97.4214 38.3567 98.2541 37.3294 98.2541C36.3022 98.2541 35.469 97.4209 35.469 96.3936C35.469 95.3664 36.3022 94.5332 37.3294 94.5332C38.3567 94.5332 39.1899 95.3664 39.1899 96.3936Z" fill="#F2F2F2"/>
<path d="M45.455 96.3936C45.455 97.4214 44.6218 98.2541 43.5946 98.2541C42.5668 98.2541 41.7341 97.4209 41.7341 96.3936C41.7341 95.3664 42.5673 94.5332 43.5946 94.5332C44.6224 94.5332 45.455 95.3664 45.455 96.3936Z" fill="#F2F2F2"/>
<path d="M85.1022 118.002L80.6593 113.559L70.0156 124.202L59.3714 113.559L54.9285 118.002L65.5727 128.645L54.9285 139.289L59.3714 143.731L70.0156 133.088L80.6593 143.731L85.1022 139.289L74.458 128.645L85.1022 118.002Z" fill="#E3EBFC"/>
<path d="M222.68 51.0264H134.311V116.214H222.68V51.0264Z" fill="#F5F9FF"/>
<path d="M222.68 51.0264H134.311V59.1572H222.68V51.0264Z" fill="#D0DBF7"/>
<path d="M141.405 55.2791C141.405 56.3069 140.572 57.1396 139.545 57.1396C138.517 57.1396 137.684 56.3064 137.684 55.2791C137.684 54.2519 138.518 53.4187 139.545 53.4187C140.572 53.4187 141.405 54.2514 141.405 55.2791Z" fill="#F2F2F2"/>
<path d="M147.67 55.2791C147.67 56.3069 146.837 57.1396 145.81 57.1396C144.782 57.1396 143.949 56.3064 143.949 55.2791C143.949 54.2519 144.783 53.4187 145.81 53.4187C146.837 53.4187 147.67 54.2514 147.67 55.2791Z" fill="#F2F2F2"/>
<path d="M153.935 55.2791C153.935 56.3069 153.102 57.1396 152.075 57.1396C151.047 57.1396 150.215 56.3064 150.215 55.2791C150.215 54.2519 151.048 53.4187 152.075 53.4187C153.102 53.4187 153.935 54.2514 153.935 55.2791Z" fill="#F2F2F2"/>
<path d="M193.582 76.8875L189.14 72.4446L178.496 83.0882L167.851 72.4446L163.409 76.8875L174.053 87.5306L163.409 98.1743L167.851 102.617L178.496 91.9736L189.14 102.617L193.582 98.1743L182.938 87.5306L193.582 76.8875Z" fill="#E3EBFC"/>
<path d="M125.208 204.739C184.868 204.739 233.231 200.56 233.231 195.405C233.231 190.25 184.868 186.071 125.208 186.071C65.5477 186.071 17.1838 190.25 17.1838 195.405C17.1838 200.56 65.5477 204.739 125.208 204.739Z" fill="white"/>
<path d="M95.6334 49.3539C94.8108 47.6295 94.8544 45.9589 95.7637 44.342L96.2055 43.5716C96.6378 42.8676 96.9137 42.3263 97.0339 41.9472C97.1535 41.5686 97.1216 41.1842 96.9361 40.7955C96.4682 39.8151 95.4138 39.7162 93.7745 40.4983C93.0142 40.8609 92.2762 41.3379 91.5616 41.9275C90.8475 42.5172 90.2153 43.1717 89.6655 43.8901L87.803 39.9858C89.019 38.5342 90.5912 37.3485 92.5181 36.4292C94.5971 35.437 96.4533 35.0861 98.0851 35.3764C99.7174 35.6667 100.9 36.5802 101.634 38.1184C102.046 38.9803 102.184 39.7704 102.049 40.4882C101.914 41.2066 101.539 42.1168 100.924 43.2191C100.517 43.9741 100.227 44.5425 100.057 44.9248C99.887 45.3071 99.802 45.684 99.8041 46.0568C99.8057 46.43 99.911 46.8362 100.12 47.2749L100.351 47.7571L95.8881 49.8861L95.6334 49.3539ZM99.0507 55.1782C98.3887 54.9442 97.9006 54.497 97.5858 53.8383C97.2636 53.1625 97.2211 52.4978 97.4598 51.8444C97.6975 51.1914 98.1553 50.7033 98.8311 50.3811C99.4904 50.0663 100.159 50.0222 100.838 50.2482C101.516 50.4752 102.013 50.9171 102.327 51.5764C102.642 52.2357 102.673 52.9003 102.422 53.5697C102.171 54.2392 101.716 54.7315 101.056 55.0458C100.381 55.368 99.7116 55.4126 99.0507 55.1782Z" fill="white"/>
<path d="M117.299 34.4608C118.41 31.8076 120.33 30.1811 123.057 29.5803L124.366 29.3033C125.589 29.0826 126.475 28.8492 127.021 28.6041C127.566 28.359 127.965 27.9373 128.216 27.3392C128.848 25.8307 127.901 24.5477 125.379 23.4907C124.208 23.0005 122.933 22.6501 121.554 22.4395C120.176 22.2284 118.806 22.1758 117.449 22.2784L119.965 16.2707C122.815 16.1803 125.723 16.7566 128.688 17.9987C131.887 19.3386 134.143 21.0709 135.454 23.194C136.766 25.3182 136.926 27.563 135.935 29.9296C135.379 31.2562 134.631 32.2037 133.69 32.7727C132.748 33.341 131.349 33.8329 129.495 34.2481C128.238 34.5475 127.309 34.7931 126.709 34.9851C126.109 35.1776 125.6 35.4604 125.184 35.8363C124.766 36.2123 124.416 36.7381 124.133 37.4134L123.822 38.1551L116.956 35.2791L117.299 34.4608ZM114.186 44.1394C113.784 43.1616 113.797 42.1652 114.222 41.1507C114.657 40.1107 115.361 39.3966 116.335 39.009C117.306 38.6209 118.313 38.6453 119.353 39.0808C120.368 39.5056 121.088 40.2128 121.515 41.2012C121.941 42.1902 121.942 43.1919 121.518 44.2059C121.093 45.2199 120.378 45.9222 119.374 46.312C118.37 46.7012 117.361 46.6836 116.347 46.2588C115.307 45.8239 114.585 45.1167 114.186 44.1394Z" fill="white"/>
<path d="M231.924 137.551V134.498H229.895V137.551H226.842V139.58H229.895V142.633H231.924V139.58H234.977V137.551H231.924Z" fill="white"/>
<path d="M212.756 39.8394V35.1838H209.661V39.8394H205.006V42.9345H209.661V47.5901H212.756V42.9345H217.412V39.8394H212.756Z" fill="white"/>
<path d="M204.32 129.952V127.729H202.841V129.952H200.618V131.43H202.841V133.654H204.32V131.43H206.543V129.952H204.32Z" fill="white"/>
<path d="M77.5471 52.6264V50.4033H76.069V52.6264H73.8459V54.1045H76.069V56.3276H77.5471V54.1045H79.7702V52.6264H77.5471Z" fill="white"/>
<path d="M60.4097 37.9241V34.8711H58.3802V37.9241H55.3276V39.9531H58.3802V43.0056H60.4097V39.9531H63.4627V37.9241H60.4097Z" fill="white"/>
<path d="M160.652 42.6968C160.652 43.3381 160.133 43.8576 159.491 43.8576C158.85 43.8576 158.331 43.3375 158.331 42.6968C158.331 42.0556 158.851 41.5361 159.491 41.5361C160.133 41.5361 160.652 42.0556 160.652 42.6968Z" fill="#EEF1FF"/>
<path d="M165.406 22.7393C165.406 23.3806 164.886 23.9 164.245 23.9C163.604 23.9 163.084 23.38 163.084 22.7393C163.084 22.0981 163.604 21.5786 164.245 21.5786C164.886 21.5786 165.406 22.0986 165.406 22.7393Z" fill="#EEF1FF"/>
<path d="M188.084 34.4794C189.298 34.4794 190.282 33.4953 190.282 32.2813C190.282 31.0674 189.298 30.0833 188.084 30.0833C186.87 30.0833 185.885 31.0674 185.885 32.2813C185.885 33.4953 186.87 34.4794 188.084 34.4794Z" fill="#EEF1FF"/>
<path d="M234.392 114.851C234.392 115.492 233.872 116.012 233.231 116.012C232.59 116.012 232.071 115.492 232.071 114.851C232.071 114.21 232.59 113.69 233.231 113.69C233.872 113.69 234.392 114.21 234.392 114.851Z" fill="#EEF1FF"/>
<path d="M233.231 151.094C233.231 151.736 232.711 152.255 232.071 152.255C231.429 152.255 230.91 151.735 230.91 151.094C230.91 150.453 231.429 149.934 232.071 149.934C232.712 149.934 233.231 150.453 233.231 151.094Z" fill="#EEF1FF"/>
<path d="M56.4884 87.7047C56.4884 88.3459 55.9684 88.8654 55.3277 88.8654C54.6865 88.8654 54.167 88.3459 54.167 87.7047C54.167 87.0634 54.6865 86.5439 55.3277 86.5439C55.9689 86.5439 56.4884 87.0634 56.4884 87.7047Z" fill="#EEF1FF"/>
<path d="M36.2845 41.7589C37.4985 41.7589 38.4826 40.7748 38.4826 39.5609C38.4826 38.3469 37.4985 37.3628 36.2845 37.3628C35.0705 37.3628 34.0864 38.3469 34.0864 39.5609C34.0864 40.7748 35.0705 41.7589 36.2845 41.7589Z" fill="#EEF1FF"/>
<path d="M79.6325 27.1592C79.6325 27.8005 79.113 28.32 78.4717 28.32C77.8305 28.32 77.311 27.8005 77.311 27.1592C77.311 26.518 77.831 25.9985 78.4717 25.9985C79.113 25.9985 79.6325 26.518 79.6325 27.1592Z" fill="#EEF1FF"/>
<path d="M18.3444 96.7742C18.3444 97.4155 17.8249 97.9349 17.1837 97.9349C16.5424 97.9349 16.0229 97.4149 16.0229 96.7742C16.0229 96.133 16.543 95.6135 17.1837 95.6135C17.8244 95.6135 18.3444 96.133 18.3444 96.7742Z" fill="#EEF1FF"/>
<path d="M18.3444 158.635C18.3444 159.276 17.8249 159.796 17.1837 159.796C16.5424 159.796 16.0229 159.276 16.0229 158.635C16.0229 157.994 16.543 157.474 17.1837 157.474C17.8244 157.474 18.3444 157.994 18.3444 158.635Z" fill="#EEF1FF"/>
<g filter="url(#filter1_d_2596_10181)">
<path d="M177.553 188.09C177.123 190.935 174.264 193.263 171.2 193.263H80.5479C77.4843 193.263 74.5944 190.939 74.126 188.1L59.1165 97.0737C58.6481 94.2344 60.7722 91.9109 63.8359 91.9109H186.519C189.583 91.9109 191.738 94.2387 191.308 97.0833L177.553 188.09Z" fill="#F9AB43"/>
</g>
<path d="M154.805 61.4946H78.4717V169.03H171.818V78.757L154.805 61.4946Z" fill="#C2CEF2"/>
<path d="M154.805 61.4946L171.943 78.632H154.805V61.4946Z" fill="#7997F2"/>
<path d="M151.056 95.4998L143.444 87.8884L125.207 106.124L106.971 87.8884L99.3586 95.4998L117.596 113.736L99.3586 131.972L106.971 139.583L125.207 121.348L143.444 139.583L151.056 131.972L132.819 113.736L151.056 95.4998Z" fill="#AFC2E8"/>
<path d="M134.066 123.144C131.659 123.147 129.109 121.267 128.4 118.967L124.903 107.625C124.194 105.325 121.644 103.444 119.237 103.444H57.0541C54.6471 103.444 53.0222 105.383 53.4428 107.753L68.6213 193.284C69.0419 195.654 71.3554 197.593 73.7624 197.593H181.479C183.886 197.593 186.164 195.648 186.541 193.271L196.986 127.375C197.363 124.997 195.702 123.054 193.295 123.058L134.066 123.144Z" fill="#145794"/>
<path d="M118.916 163.228C118.916 159.898 120.238 157.304 122.882 155.443L124.155 154.562C125.362 153.779 126.203 153.135 126.677 152.629C127.149 152.123 127.387 151.495 127.387 150.744C127.387 148.851 125.803 147.904 122.637 147.904C121.169 147.904 119.651 148.1 118.084 148.492C116.518 148.884 115.033 149.439 113.63 150.156V142.617C116.632 141.247 119.994 140.561 123.714 140.561C127.729 140.561 130.912 141.402 133.261 143.083C135.611 144.764 136.785 147.089 136.785 150.059C136.785 151.723 136.41 153.069 135.66 154.097C134.908 155.126 133.636 156.276 131.841 157.549C130.634 158.43 129.751 159.108 129.197 159.581C128.642 160.055 128.226 160.584 127.949 161.172C127.671 161.76 127.533 162.478 127.533 163.325V164.256H118.916V163.228H118.916ZM119.921 174.952C119.055 174.088 118.623 173.019 118.623 171.746C118.623 170.441 119.055 169.364 119.921 168.515C120.784 167.666 121.871 167.242 123.176 167.242C124.449 167.242 125.534 167.674 126.432 168.539C127.328 169.404 127.778 170.472 127.778 171.745C127.778 173.018 127.329 174.087 126.432 174.952C125.534 175.817 124.449 176.249 123.176 176.249C121.871 176.249 120.784 175.817 119.921 174.952Z" fill="white"/>
<path opacity="0.1" d="M193.294 123.057L186.558 123.067C186.707 124.618 186.786 126.183 186.786 127.762C186.786 163.086 148.979 191.721 102.344 191.721C89.8507 191.721 77.9931 189.665 67.3245 185.977L68.6213 193.284C69.0419 195.653 71.3553 197.593 73.7623 197.593H181.479C183.886 197.593 186.164 195.648 186.541 193.27L196.986 127.374C197.362 124.997 195.701 123.054 193.294 123.057Z" fill="black"/>
<g opacity="0.3">
<path d="M63.8938 116.137C64.2139 118.285 64.534 120.432 64.8546 122.579C65.6165 127.688 66.3785 132.796 67.1404 137.905C68.0682 144.127 68.996 150.349 69.9239 156.57C70.7203 161.912 71.5168 167.253 72.3133 172.594C72.5781 174.369 72.8424 176.144 73.1072 177.918C73.2316 178.752 73.3023 179.616 73.4831 180.44C73.4911 180.475 73.4937 180.512 73.499 180.547C73.608 181.278 74.5311 181.681 75.1813 181.502C75.9646 181.287 76.2458 180.553 76.1363 179.82C75.8162 177.673 75.4961 175.526 75.1755 173.379C74.4136 168.27 73.6516 163.161 72.8897 158.052C71.9619 151.83 71.0341 145.608 70.1062 139.387C69.3097 134.045 68.5132 128.704 67.7168 123.363C67.452 121.588 67.1877 119.814 66.9229 118.039C66.7985 117.206 66.7278 116.341 66.547 115.518C66.539 115.482 66.5364 115.446 66.531 115.41C66.422 114.679 65.499 114.276 64.8487 114.455C64.0661 114.671 63.7843 115.404 63.8938 116.137Z" fill="white"/>
</g>
<path d="M214.006 74.0999C205.601 74.0999 198.787 80.9137 198.787 89.3188C198.787 93.0753 200.151 96.5117 202.407 99.166L201.771 107.002L209.042 103.706C210.599 104.243 212.268 104.538 214.006 104.538C222.412 104.538 229.225 97.7246 229.225 89.3194C229.225 80.9142 222.412 74.0999 214.006 74.0999Z" fill="#EA5455"/>
<path d="M212.953 97.1099C212.675 96.8313 212.536 96.4878 212.536 96.0784C212.536 95.669 212.675 95.3255 212.953 95.0469C213.232 94.7683 213.575 94.629 213.984 94.629C214.394 94.629 214.742 94.7683 215.029 95.0469C215.315 95.325 215.458 95.669 215.458 96.0784C215.458 96.4878 215.314 96.8318 215.029 97.1099C214.742 97.388 214.394 97.5273 213.984 97.5273C213.575 97.5273 213.232 97.388 212.953 97.1099ZM212.094 79.9922H215.925L215.213 92.2475H212.805L212.094 79.9922Z" fill="#F2F2F2"/>
<path opacity="0.1" d="M205.669 97.3832C204.017 97.3832 202.406 97.2381 200.85 96.9642C201.304 97.7448 201.826 98.4817 202.407 99.166L201.771 107.002L209.043 103.706C210.599 104.243 212.268 104.538 214.007 104.538C222.412 104.538 229.226 97.7246 229.226 89.3194C229.226 87.2824 228.822 85.3401 228.097 83.5642C225.049 91.5802 216.162 97.3832 205.669 97.3832Z" fill="black"/>
<path d="M58.0786 69.9828V55.5518C58.0786 53.8189 56.6605 52.4009 54.9277 52.4009H28.6243C26.8914 52.4009 25.4734 53.8189 25.4734 55.5518V73.7371C25.4734 75.47 26.8914 76.888 28.6243 76.888H52.174H54.9272H65.6681L58.0786 69.9828Z" fill="#145794"/>
<path d="M37.3789 62.6175C37.3789 64.0021 36.5744 65.124 35.5828 65.124C34.5906 65.124 33.7861 64.0016 33.7861 62.6175C33.7861 61.233 34.5906 60.1111 35.5828 60.1111C36.5744 60.1111 37.3789 61.2335 37.3789 62.6175Z" fill="white"/>
<path d="M49.321 62.6175C49.321 64.0021 48.5165 65.124 47.5244 65.124C46.5322 65.124 45.7283 64.0016 45.7283 62.6175C45.7283 61.233 46.5327 60.1111 47.5244 60.1111C48.5171 60.1111 49.321 61.2335 49.321 62.6175Z" fill="white"/>
<path d="M37.4368 69.6265C38.0525 68.9518 38.9096 68.4216 39.7619 68.1143C41.9196 67.3364 44.0049 68.1489 45.6484 69.6265C46.0871 70.021 46.7395 69.3729 46.2982 68.9767C44.4766 67.3391 42.1131 66.3772 39.6902 67.169C38.6273 67.5162 37.5479 68.143 36.787 68.9767C36.3888 69.4127 37.0369 70.0646 37.4368 69.6265Z" fill="white"/>
<path opacity="0.1" d="M58.0785 69.9828V55.5518C58.0785 53.8189 56.6604 52.4009 54.9276 52.4009H52.2313C52.6992 54.1151 52.9507 55.8921 52.9507 57.7158C52.9507 65.3814 48.5955 72.2457 41.7249 76.8885H52.1744H54.9276H65.6686L58.0785 69.9828Z" fill="black"/>
<path d="M148.972 145.492C140.537 153.927 140.537 167.603 148.972 176.038C157.407 184.473 171.083 184.473 179.518 176.038C187.953 167.603 187.953 153.927 179.518 145.492C171.083 137.057 157.407 137.057 148.972 145.492ZM177.042 173.563C169.975 180.63 158.516 180.63 151.448 173.563C144.381 166.495 144.381 155.036 151.448 147.968C158.516 140.9 169.975 140.9 177.042 147.968C184.11 155.036 184.11 166.495 177.042 173.563Z" fill="#EB725F"/>
<path opacity="0.3" d="M164.245 178.863C174.24 178.863 182.343 170.76 182.343 160.765C182.343 150.77 174.24 142.667 164.245 142.667C154.25 142.667 146.147 150.77 146.147 160.765C146.147 170.76 154.25 178.863 164.245 178.863Z" fill="white"/>
<path d="M178.936 172.751L176.228 175.459L200.718 199.949L203.426 197.242L178.936 172.751Z" fill="#6E7FDD"/>
<path d="M178.935 172.753L176.228 175.461L185.247 184.48L187.955 181.773L178.935 172.753Z" fill="#EB725F"/>
<path d="M153.708 153.324C154.395 151.343 155.9 149.741 157.71 148.629C159.532 147.524 161.695 146.931 163.858 146.932C166.022 146.927 168.186 147.518 170.008 148.623C171.819 149.735 173.324 151.339 174.007 153.324C172.028 152.655 170.355 152.126 168.692 151.803C167.044 151.468 165.452 151.315 163.858 151.307C162.263 151.31 160.67 151.462 159.021 151.797C157.358 152.12 155.684 152.651 153.708 153.324Z" fill="white"/>
</g>
<defs>
<filter id="filter0_d_2596_10181" x="12.0229" y="14.2615" width="226.954" height="196.477" filterUnits="userSpaceOnUse" color-interpolation-filters="sRGB">
<feFlood flood-opacity="0" result="BackgroundImageFix"/>
<feColorMatrix in="SourceAlpha" type="matrix" values="0 0 0 0 0 0 0 0 0 0 0 0 0 0 0 0 0 0 127 0" result="hardAlpha"/>
<feOffset dy="2"/>
<feGaussianBlur stdDeviation="2"/>
<feComposite in2="hardAlpha" operator="out"/>
<feColorMatrix type="matrix" values="0 0 0 0 0.647059 0 0 0 0 0.639216 0 0 0 0 0.682353 0 0 0 0.3 0"/>
<feBlend mode="normal" in2="BackgroundImageFix" result="effect1_dropShadow_2596_10181"/>
<feBlend mode="normal" in="SourceGraphic" in2="effect1_dropShadow_2596_10181" result="shape"/>
</filter>
<filter id="filter1_d_2596_10181" x="55.0518" y="89.9109" width="140.311" height="109.352" filterUnits="userSpaceOnUse" color-interpolation-filters="sRGB">
<feFlood flood-opacity="0" result="BackgroundImageFix"/>
<feColorMatrix in="SourceAlpha" type="matrix" values="0 0 0 0 0 0 0 0 0 0 0 0 0 0 0 0 0 0 127 0" result="hardAlpha"/>
<feOffset dy="2"/>
<feGaussianBlur stdDeviation="2"/>
<feComposite in2="hardAlpha" operator="out"/>
<feColorMatrix type="matrix" values="0 0 0 0 0.647059 0 0 0 0 0.639216 0 0 0 0 0.682353 0 0 0 0.3 0"/>
<feBlend mode="normal" in2="BackgroundImageFix" result="effect1_dropShadow_2596_10181"/>
<feBlend mode="normal" in="SourceGraphic" in2="effect1_dropShadow_2596_10181" result="shape"/>
</filter>
</defs>
</svg>
